Coordinates
version=1
nRows=11
nColumns=36
inDegrees=yes

Units are S.I. units (second, meters, Newtons, ...)
If the header above contains a line with 'inDegrees', this indicates whether rotational values are in degrees (yes) or radians (no).

endheader
time	pelvis_tilt	pelvis_list	pelvis_rotation	pelvis_tx	pelvis_ty	pelvis_tz	hip_flexion_r	hip_adduction_r	hip_rotation_r	knee_angle_r	knee_angle_r_beta	ankle_angle_r	subtalar_angle_r	mtp_angle_r	hip_flexion_l	hip_adduction_l	hip_rotation_l	knee_angle_l	knee_angle_l_beta	ankle_angle_l	subtalar_angle_l	mtp_angle_l	lumbar_extension	lumbar_bending	lumbar_rotation	arm_flex_r	arm_add_r	arm_rot_r	elbow_flex_r	pro_sup_r	arm_flex_l	arm_add_l	arm_rot_l	elbow_flex_l	pro_sup_l
      7.51666670	    -10.14301548	      0.18620774	     -6.31377721	      0.83915057	      0.88392410	      0.06907790	     27.11600719	      5.89552026	     -5.93698529	     30.32319793	      0.52923964	     20.26885251	     -3.64411820	     -7.49999987	     57.44560232	     -5.91935768	      3.53620095	     44.18130916	      0.77110931	     18.29642082	    -14.71721435	     -7.49999987	     -9.97758290	      1.61720768	      2.25187452	     34.39349099	     -8.35130308	     70.03193747	    124.58165820	    103.25367956	     37.79260304	     -4.46217122	     64.30803280	    124.57922063	    105.14426884
      7.53333330	     -9.84162429	      0.19120515	     -6.56092452	      0.83883195	      0.88068282	      0.06876870	     26.86578772	      6.07984718	     -5.64046302	     31.06470716	      0.54218142	     21.30684596	     -3.47336802	     -7.49999987	     58.85744056	     -5.98229902	      4.07119820	     43.82773393	      0.76493826	     18.43643283	    -13.42039496	     -7.49999987	    -10.59547315	      1.70570243	      2.63898155	     34.98748259	     -8.77521789	     70.00926894	    124.64345313	    102.92089621	     37.80750186	     -4.44600943	     64.10415959	    124.49530567	    105.00882809
      7.55000000	     -9.60057589	      0.26551094	     -6.84336910	      0.83868820	      0.88271782	      0.06930676	     26.77304737	      6.18091991	     -5.30046078	     32.01681955	      0.55879892	     22.39830366	     -3.13833225	     -7.49999987	     59.96656214	     -6.06407515	      4.33635660	     43.69744627	      0.76266431	     18.10521163	    -12.32425861	     -7.49999987	    -11.21094401	      1.86101689	      2.94511780	     35.28116340	     -9.38244119	     70.20301462	    124.16149480	    102.69283947	     37.82795337	     -4.46220631	     63.90887360	    124.09707771	    104.97819037
      7.56666670	     -9.57400176	      0.38809976	     -6.94110241	      0.84570429	      0.88217829	      0.07196348	     26.98621071	      6.27933007	     -4.80234943	     33.19368757	      0.57933914	     23.30918115	     -2.93875712	     -7.49999987	     61.23593144	     -6.12169398	      4.64982626	     43.87256004	      0.76572062	     17.49742917	    -12.03721150	     -7.49999987	    -11.37123492	      1.85423857	      3.11691870	     35.18363429	     -9.41727238	     70.21860546	    124.12203468	     99.62180660	     37.36109068	     -4.55156218	     64.30431988	    124.03931418	    101.94605167
      7.58333330	     -9.75638103	      0.64029062	     -7.13623924	      0.83883823	      0.87769840	      0.06937882	     28.01407349	      6.09846412	     -4.66581158	     35.12020066	      0.61296314	     24.41417508	     -1.63423681	     -7.49999987	     62.88339135	     -6.20841219	      4.66635769	     44.06370883	      0.76905680	     17.43859102	    -10.71340067	     -7.49999987	    -11.58264705	      1.86354922	      3.16609436	     35.85674422	     -9.50891700	     70.90898346	    123.77324891	    100.20214579	     37.48001269	     -4.62358085	     64.60163470	    124.12419840	    102.97412468
      7.60000000	     -9.62879076	      0.76267629	     -7.14833087	      0.83994476	      0.87961126	      0.06929599	     28.70512492	      6.04491141	     -4.40167600	     36.99146341	      0.64562283	     24.91700328	     -1.41196950	     -7.49999987	     64.00449104	     -6.05594865	      4.85133857	     44.03214345	      0.76850588	     16.69232496	    -10.08284142	     -7.49999987	    -12.30203319	      2.06835401	      3.27601958	     36.44462193	     -9.95072083	     71.24865773	    123.41247017	    100.39887179	     37.19616538	     -4.79118337	     64.68320941	    123.78253775	    103.32436909
      7.61666670	     -9.76432735	      1.05208676	     -7.27731207	      0.84009935	      0.87805227	      0.06976723	     29.68729561	      5.82125964	     -4.25520425	     38.97054482	      0.68016432	     25.81649715	     -0.58534937	     -7.49999987	     65.18911499	     -5.96967042	      4.78745872	     43.98659934	      0.76771099	     15.90286794	     -9.60955181	     -7.49999987	    -12.60537636	      2.06750221	      3.06638779	     37.01344046	     -9.87898819	     72.10340623	    123.08536130	    100.67591587	     37.19104031	     -5.01278054	     64.96203022	    123.70142213	    103.82116125
      7.63333330	     -9.67057913	      1.19678869	     -7.24387320	      0.83497677	      0.87614589	      0.07247603	     30.91869252	      5.72259133	     -4.11521487	     41.52324522	      0.72471735	     26.45712787	     -0.15051203	     -7.49999987	     66.15020338	     -5.82517743	      4.91719349	     44.05044774	      0.76882535	     14.93055960	     -9.09243770	     -7.49999987	    -13.18784359	      2.16891570	      2.67989591	     37.88129554	     -9.37406935	     73.11011734	    122.68887916	    100.91187541	     37.88642026	     -5.19061571	     64.99005140	    124.21337502	    104.30434490
      7.65000000	     -9.40013732	      1.31669409	     -7.11191109	      0.84067932	      0.87342733	      0.07517666	     31.64044904	      5.60583818	     -4.15184802	     43.65206976	      0.76187234	     27.49638110	      0.31436071	     -7.49999987	     66.78566142	     -5.53691153	      5.25481912	     44.22346416	      0.77184506	     14.01691011	     -9.24709665	     -7.49999987	    -13.58824019	      2.17537651	      1.82429006	     38.47831657	     -8.37007983	     73.26586612	    121.89418907	    101.02896346	     38.27418855	     -5.78254802	     64.29767446	    124.90151279	    104.81404617
      7.66666670	     -9.23958669	      1.38627947	     -7.07038390	      0.83553715	      0.87175900	      0.07234366	     32.69942189	      5.57575867	     -4.09278537	     45.79494227	      0.79927252	     28.09223604	      0.20628591	     -7.49999987	     67.71604351	     -5.25617506	      5.61409613	     44.59000518	      0.77824240	     13.44170326	     -8.91526106	     -7.49999987	    -14.43557914	      2.36257009	      1.68839369	     39.18994984	     -8.10672562	     73.32058881	    121.61493251	    101.02742877	     39.20629833	     -5.95839564	     64.20967556	    125.14920414	    104.89950260
      7.68333330	     -9.47140258	      1.87817094	     -6.95867606	      0.83602711	      0.87051054	      0.07279695	     34.15140679	      5.02087411	     -4.08906605	     47.88071572	      0.83567614	     28.97212963	      0.64016033	     -7.49999987	     68.76455222	     -4.69780925	      5.67999457	     44.78777892	      0.78169421	     12.48137960	     -9.36500245	     -7.49999987	    -15.04174519	      2.25995971	      1.15174383	     39.79367190	     -7.82019871	     74.22464127	    121.12680308	    100.98379574	     39.45566765	     -6.74133836	     64.01871233	    125.49588109	    105.10062119
